# xmcd CD database file
#
# Track frame offsets:
#	150
#	13814
#	24969
#	36847
#	51183
#	64322
#	76039
#	89730
#	100166
#	113890
#	125926
#	138377
#
# Disc length: 2013 seconds
#
# Revision: 2
# Processed by: cddbd v1.5.1PL0 Copyright (c) Steve Scherf et al.
# Submitted via: CDex 1.51
#
DISCID=a307db0c
DTITLE=Various Artist - Cream Of Vintage Soul - Volume 1 [CD1 Of 3)
DYEAR=1997
DGENRE=Soul
TTITLE0=Eddie Holman - This Can't Be True
TTITLE1=Jackie Lee - Try My Method
TTITLE2=Ad-Libs - Human
TTITLE3=Parliments - I Wanna Testify
TTITLE4=David Ruffin - You're Still In My Heart
TTITLE5=Bob and Earl - Harlem Shuffle '66
TTITLE6=Robert Ward - Never Alone
TTITLE7=Steve Marcha - Whirlpool
TTITLE8=Darrell Banks - When A Man Loves A Woman
TTITLE9=Lee Garett - I Can't Break The Habit
TTITLE10=San Remo Sings - Still Hungry
TTITLE11=Carl Carlton - Nothing No Sweeter Than Love
EXTD=tim1701 YEAR: 1997
EXTT0=
EXTT1=
EXTT2=
EXTT3=
EXTT4=
EXTT5=
EXTT6=
EXTT7=
EXTT8=
EXTT9=
EXTT10=
EXTT11=
PLAYORDER=
